<svg width="1152" height="64" viewBox="0 0 1152 64" fill="none" xmlns="http://www.w3.org/2000/svg">
<rect x="1" y="1" width="1150" height="62" rx="31" fill="#1B1B1B"/>
<rect x="1" y="1" width="1150" height="62" rx="31" stroke="#262626" stroke-width="2"/>
<path d="M69.8826 39H66.5872L71.6085 24.4545H75.5716L80.5858 39H77.2903L73.6468 27.7784H73.5332L69.8826 39ZM69.6767 33.2827H77.4608V35.6832H69.6767V33.2827ZM82.3365 39V24.4545H88.1603C89.2304 24.4545 90.1229 24.6132 90.8379 24.9304C91.5529 25.2476 92.0903 25.688 92.4501 26.2514C92.81 26.8101 92.9899 27.4541 92.9899 28.1832C92.9899 28.7514 92.8762 29.2509 92.649 29.6818C92.4217 30.108 92.1092 30.4583 91.7115 30.733C91.3185 31.0028 90.8687 31.1946 90.362 31.3082V31.4503C90.916 31.474 91.4345 31.6302 91.9174 31.919C92.4051 32.2079 92.8005 32.6127 93.1035 33.1335C93.4065 33.6496 93.5581 34.2652 93.5581 34.9801C93.5581 35.7519 93.3663 36.4408 92.9828 37.0469C92.604 37.6482 92.0429 38.1241 91.2995 38.4744C90.5562 38.8248 89.64 39 88.551 39H82.3365ZM85.4118 36.4858H87.9189C88.7759 36.4858 89.4009 36.3224 89.7939 35.9957C90.1868 35.6643 90.3833 35.224 90.3833 34.6747C90.3833 34.2723 90.2863 33.9171 90.0922 33.6094C89.898 33.3016 89.621 33.0601 89.2612 32.8849C88.9061 32.7098 88.4823 32.6222 87.9899 32.6222H85.4118V36.4858ZM85.4118 30.5412H87.6916C88.113 30.5412 88.487 30.4678 88.8137 30.321C89.1452 30.1695 89.4056 29.9564 89.595 29.6818C89.7891 29.4072 89.8862 29.0781 89.8862 28.6946C89.8862 28.169 89.6992 27.7453 89.3251 27.4233C88.9558 27.1013 88.4302 26.9403 87.7484 26.9403H85.4118V30.5412ZM108.926 31.7273C108.926 33.3134 108.625 34.6629 108.024 35.7756C107.427 36.8883 106.613 37.7382 105.58 38.3253C104.553 38.9077 103.398 39.1989 102.115 39.1989C100.822 39.1989 99.6619 38.9053 98.6344 38.3182C97.6069 37.7311 96.7949 36.8812 96.1983 35.7685C95.6017 34.6558 95.3034 33.3087 95.3034 31.7273C95.3034 30.1411 95.6017 28.7917 96.1983 27.679C96.7949 26.5663 97.6069 25.7187 98.6344 25.1364C99.6619 24.5492 100.822 24.2557 102.115 24.2557C103.398 24.2557 104.553 24.5492 105.58 25.1364C106.613 25.7187 107.427 26.5663 108.024 27.679C108.625 28.7917 108.926 30.1411 108.926 31.7273ZM105.808 31.7273C105.808 30.6998 105.654 29.8333 105.346 29.1278C105.043 28.4223 104.615 27.8873 104.061 27.5227C103.507 27.1581 102.858 26.9759 102.115 26.9759C101.371 26.9759 100.722 27.1581 100.169 27.5227C99.6145 27.8873 99.1837 28.4223 98.8759 29.1278C98.5729 29.8333 98.4213 30.6998 98.4213 31.7273C98.4213 32.7547 98.5729 33.6212 98.8759 34.3267C99.1837 35.0322 99.6145 35.5672 100.169 35.9318C100.722 36.2964 101.371 36.4787 102.115 36.4787C102.858 36.4787 103.507 36.2964 104.061 35.9318C104.615 35.5672 105.043 35.0322 105.346 34.3267C105.654 33.6212 105.808 32.7547 105.808 31.7273ZM120.188 24.4545H123.263V33.9006C123.263 34.9612 123.01 35.8892 122.503 36.6847C122.001 37.4801 121.298 38.1004 120.394 38.5455C119.49 38.9858 118.436 39.206 117.233 39.206C116.026 39.206 114.97 38.9858 114.066 38.5455C113.162 38.1004 112.458 37.4801 111.956 36.6847C111.455 35.8892 111.204 34.9612 111.204 33.9006V24.4545H114.279V33.6378C114.279 34.1918 114.4 34.6842 114.641 35.1151C114.887 35.5459 115.233 35.8845 115.678 36.1307C116.123 36.3769 116.642 36.5 117.233 36.5C117.83 36.5 118.349 36.3769 118.789 36.1307C119.234 35.8845 119.577 35.5459 119.819 35.1151C120.065 34.6842 120.188 34.1918 120.188 33.6378V24.4545ZM125.24 26.9901V24.4545H137.186V26.9901H132.732V39H129.693V26.9901H125.24Z" fill="#F35034"/>
<path d="M509.109 39V24.4545H514.024C515.165 24.4545 516.098 24.6605 516.822 25.0724C517.551 25.4796 518.091 26.0312 518.441 26.7273C518.792 27.4233 518.967 28.1998 518.967 29.0568C518.967 29.9138 518.792 30.6927 518.441 31.3935C518.096 32.0942 517.561 32.6529 516.836 33.0696C516.112 33.4815 515.184 33.6875 514.052 33.6875H510.529V32.125H513.995C514.777 32.125 515.404 31.9901 515.877 31.7202C516.351 31.4503 516.694 31.0857 516.907 30.6264C517.125 30.1624 517.234 29.6392 517.234 29.0568C517.234 28.4744 517.125 27.9536 516.907 27.4943C516.694 27.035 516.349 26.6752 515.87 26.4148C515.392 26.1496 514.758 26.017 513.967 26.017H510.87V39H509.109ZM534.077 31.7273C534.077 33.2614 533.8 34.5871 533.246 35.7045C532.692 36.822 531.932 37.6837 530.966 38.2898C530 38.8958 528.897 39.1989 527.657 39.1989C526.416 39.1989 525.313 38.8958 524.347 38.2898C523.381 37.6837 522.621 36.822 522.067 35.7045C521.513 34.5871 521.236 33.2614 521.236 31.7273C521.236 30.1932 521.513 28.8674 522.067 27.75C522.621 26.6326 523.381 25.7708 524.347 25.1648C525.313 24.5587 526.416 24.2557 527.657 24.2557C528.897 24.2557 530 24.5587 530.966 25.1648C531.932 25.7708 532.692 26.6326 533.246 27.75C533.8 28.8674 534.077 30.1932 534.077 31.7273ZM532.373 31.7273C532.373 30.4678 532.162 29.4048 531.74 28.5384C531.324 27.6719 530.758 27.0161 530.043 26.571C529.333 26.1259 528.537 25.9034 527.657 25.9034C526.776 25.9034 525.978 26.1259 525.263 26.571C524.553 27.0161 523.987 27.6719 523.566 28.5384C523.149 29.4048 522.941 30.4678 522.941 31.7273C522.941 32.9867 523.149 34.0497 523.566 34.9162C523.987 35.7827 524.553 36.4384 525.263 36.8835C525.978 37.3286 526.776 37.5511 527.657 37.5511C528.537 37.5511 529.333 37.3286 530.043 36.8835C530.758 36.4384 531.324 35.7827 531.74 34.9162C532.162 34.0497 532.373 32.9867 532.373 31.7273ZM537.039 39V24.4545H541.953C543.09 24.4545 544.023 24.6487 544.752 25.0369C545.481 25.4205 546.021 25.9484 546.371 26.6207C546.721 27.2931 546.897 28.0578 546.897 28.9148C546.897 29.7718 546.721 30.5317 546.371 31.1946C546.021 31.8575 545.483 32.3783 544.759 32.7571C544.034 33.1312 543.109 33.3182 541.982 33.3182H538.005V31.7273H541.925C542.702 31.7273 543.327 31.6136 543.8 31.3864C544.278 31.1591 544.624 30.8371 544.837 30.4205C545.055 29.9991 545.164 29.4972 545.164 28.9148C545.164 28.3324 545.055 27.8234 544.837 27.3878C544.619 26.9522 544.271 26.616 543.793 26.3793C543.315 26.1378 542.683 26.017 541.897 26.017H538.8V39H537.039ZM543.885 32.4659L547.465 39H545.419L541.897 32.4659H543.885ZM549.036 26.017V24.4545H559.945V26.017H555.371V39H553.61V26.017H549.036ZM562.664 39V24.4545H571.385V26.017H564.425V30.9318H570.732V32.4943H564.425V39H562.664ZM586.675 31.7273C586.675 33.2614 586.398 34.5871 585.844 35.7045C585.29 36.822 584.53 37.6837 583.564 38.2898C582.598 38.8958 581.495 39.1989 580.254 39.1989C579.014 39.1989 577.911 38.8958 576.945 38.2898C575.979 37.6837 575.219 36.822 574.665 35.7045C574.111 34.5871 573.834 33.2614 573.834 31.7273C573.834 30.1932 574.111 28.8674 574.665 27.75C575.219 26.6326 575.979 25.7708 576.945 25.1648C577.911 24.5587 579.014 24.2557 580.254 24.2557C581.495 24.2557 582.598 24.5587 583.564 25.1648C584.53 25.7708 585.29 26.6326 585.844 27.75C586.398 28.8674 586.675 30.1932 586.675 31.7273ZM584.97 31.7273C584.97 30.4678 584.759 29.4048 584.338 28.5384C583.921 27.6719 583.356 27.0161 582.641 26.571C581.93 26.1259 581.135 25.9034 580.254 25.9034C579.374 25.9034 578.576 26.1259 577.861 26.571C577.151 27.0161 576.585 27.6719 576.163 28.5384C575.747 29.4048 575.538 30.4678 575.538 31.7273C575.538 32.9867 575.747 34.0497 576.163 34.9162C576.585 35.7827 577.151 36.4384 577.861 36.8835C578.576 37.3286 579.374 37.5511 580.254 37.5511C581.135 37.5511 581.93 37.3286 582.641 36.8835C583.356 36.4384 583.921 35.7827 584.338 34.9162C584.759 34.0497 584.97 32.9867 584.97 31.7273ZM589.636 39V24.4545H591.398V37.4375H598.159V39H589.636ZM602.648 24.4545V39H600.886V24.4545H602.648ZM618.452 31.7273C618.452 33.2614 618.175 34.5871 617.621 35.7045C617.067 36.822 616.307 37.6837 615.341 38.2898C614.375 38.8958 613.272 39.1989 612.032 39.1989C610.791 39.1989 609.688 38.8958 608.722 38.2898C607.756 37.6837 606.996 36.822 606.442 35.7045C605.888 34.5871 605.611 33.2614 605.611 31.7273C605.611 30.1932 605.888 28.8674 606.442 27.75C606.996 26.6326 607.756 25.7708 608.722 25.1648C609.688 24.5587 610.791 24.2557 612.032 24.2557C613.272 24.2557 614.375 24.5587 615.341 25.1648C616.307 25.7708 617.067 26.6326 617.621 27.75C618.175 28.8674 618.452 30.1932 618.452 31.7273ZM616.748 31.7273C616.748 30.4678 616.537 29.4048 616.115 28.5384C615.699 27.6719 615.133 27.0161 614.418 26.571C613.708 26.1259 612.912 25.9034 612.032 25.9034C611.151 25.9034 610.353 26.1259 609.638 26.571C608.928 27.0161 608.362 27.6719 607.941 28.5384C607.524 29.4048 607.316 30.4678 607.316 31.7273C607.316 32.9867 607.524 34.0497 607.941 34.9162C608.362 35.7827 608.928 36.4384 609.638 36.8835C610.353 37.3286 611.151 37.5511 612.032 37.5511C612.912 37.5511 613.708 37.3286 614.418 36.8835C615.133 36.4384 615.699 35.7827 616.115 34.9162C616.537 34.0497 616.748 32.9867 616.748 31.7273Z" fill="white"/>
<path d="M1002.87 29H1001.11C1001 28.4934 1000.82 28.0483 1000.56 27.6648C1000.31 27.2812 999.994 26.9593 999.624 26.6989C999.26 26.4337 998.855 26.2348 998.41 26.1023C997.965 25.9697 997.501 25.9034 997.018 25.9034C996.137 25.9034 995.339 26.1259 994.624 26.571C993.914 27.0161 993.348 27.6719 992.927 28.5384C992.51 29.4048 992.302 30.4678 992.302 31.7273C992.302 32.9867 992.51 34.0497 992.927 34.9162C993.348 35.7827 993.914 36.4384 994.624 36.8835C995.339 37.3286 996.137 37.5511 997.018 37.5511C997.501 37.5511 997.965 37.4848 998.41 37.3523C998.855 37.2197 999.26 37.0232 999.624 36.7628C999.994 36.4976 1000.31 36.1733 1000.56 35.7898C1000.82 35.4015 1001 34.9564 1001.11 34.4545H1002.87C1002.74 35.1979 1002.5 35.8632 1002.15 36.4503C1001.8 37.0374 1001.36 37.5369 1000.84 37.9489C1000.32 38.3561 999.733 38.6662 999.085 38.8793C998.441 39.0923 997.752 39.1989 997.018 39.1989C995.777 39.1989 994.674 38.8958 993.708 38.2898C992.742 37.6837 991.982 36.822 991.428 35.7045C990.874 34.5871 990.597 33.2614 990.597 31.7273C990.597 30.1932 990.874 28.8674 991.428 27.75C991.982 26.6326 992.742 25.7708 993.708 25.1648C994.674 24.5587 995.777 24.2557 997.018 24.2557C997.752 24.2557 998.441 24.3622 999.085 24.5753C999.733 24.7884 1000.32 25.1009 1000.84 25.5128C1001.36 25.92 1001.8 26.4171 1002.15 27.0043C1002.5 27.5866 1002.74 28.2519 1002.87 29ZM1017.99 31.7273C1017.99 33.2614 1017.71 34.5871 1017.16 35.7045C1016.6 36.822 1015.84 37.6837 1014.88 38.2898C1013.91 38.8958 1012.81 39.1989 1011.57 39.1989C1010.33 39.1989 1009.22 38.8958 1008.26 38.2898C1007.29 37.6837 1006.53 36.822 1005.98 35.7045C1005.43 34.5871 1005.15 33.2614 1005.15 31.7273C1005.15 30.1932 1005.43 28.8674 1005.98 27.75C1006.53 26.6326 1007.29 25.7708 1008.26 25.1648C1009.22 24.5587 1010.33 24.2557 1011.57 24.2557C1012.81 24.2557 1013.91 24.5587 1014.88 25.1648C1015.84 25.7708 1016.6 26.6326 1017.16 27.75C1017.71 28.8674 1017.99 30.1932 1017.99 31.7273ZM1016.28 31.7273C1016.28 30.4678 1016.07 29.4048 1015.65 28.5384C1015.24 27.6719 1014.67 27.0161 1013.96 26.571C1013.24 26.1259 1012.45 25.9034 1011.57 25.9034C1010.69 25.9034 1009.89 26.1259 1009.18 26.571C1008.47 27.0161 1007.9 27.6719 1007.48 28.5384C1007.06 29.4048 1006.85 30.4678 1006.85 31.7273C1006.85 32.9867 1007.06 34.0497 1007.48 34.9162C1007.9 35.7827 1008.47 36.4384 1009.18 36.8835C1009.89 37.3286 1010.69 37.5511 1011.57 37.5511C1012.45 37.5511 1013.24 37.3286 1013.96 36.8835C1014.67 36.4384 1015.24 35.7827 1015.65 34.9162C1016.07 34.0497 1016.28 32.9867 1016.28 31.7273ZM1032.48 24.4545V39H1030.78L1022.85 27.5795H1022.71V39H1020.95V24.4545H1022.66L1030.61 35.9034H1030.75V24.4545H1032.48ZM1035.21 26.017V24.4545H1046.12V26.017H1041.55V39H1039.79V26.017H1035.21ZM1047.74 39H1045.89L1051.23 24.4545H1053.05L1058.39 39H1056.55L1052.2 26.7557H1052.09L1047.74 39ZM1048.42 33.3182H1055.86V34.8807H1048.42V33.3182ZM1071.68 29H1069.92C1069.81 28.4934 1069.63 28.0483 1069.37 27.6648C1069.11 27.2812 1068.8 26.9593 1068.43 26.6989C1068.07 26.4337 1067.66 26.2348 1067.22 26.1023C1066.77 25.9697 1066.31 25.9034 1065.83 25.9034C1064.95 25.9034 1064.15 26.1259 1063.43 26.571C1062.72 27.0161 1062.16 27.6719 1061.74 28.5384C1061.32 29.4048 1061.11 30.4678 1061.11 31.7273C1061.11 32.9867 1061.32 34.0497 1061.74 34.9162C1062.16 35.7827 1062.72 36.4384 1063.43 36.8835C1064.15 37.3286 1064.95 37.5511 1065.83 37.5511C1066.31 37.5511 1066.77 37.4848 1067.22 37.3523C1067.66 37.2197 1068.07 37.0232 1068.43 36.7628C1068.8 36.4976 1069.11 36.1733 1069.37 35.7898C1069.63 35.4015 1069.81 34.9564 1069.92 34.4545H1071.68C1071.55 35.1979 1071.3 35.8632 1070.95 36.4503C1070.6 37.0374 1070.17 37.5369 1069.65 37.9489C1069.13 38.3561 1068.54 38.6662 1067.89 38.8793C1067.25 39.0923 1066.56 39.1989 1065.83 39.1989C1064.59 39.1989 1063.48 38.8958 1062.52 38.2898C1061.55 37.6837 1060.79 36.822 1060.24 35.7045C1059.68 34.5871 1059.41 33.2614 1059.41 31.7273C1059.41 30.1932 1059.68 28.8674 1060.24 27.75C1060.79 26.6326 1061.55 25.7708 1062.52 25.1648C1063.48 24.5587 1064.59 24.2557 1065.83 24.2557C1066.56 24.2557 1067.25 24.3622 1067.89 24.5753C1068.54 24.7884 1069.13 25.1009 1069.65 25.5128C1070.17 25.92 1070.6 26.4171 1070.95 27.0043C1071.3 27.5866 1071.55 28.2519 1071.68 29ZM1073.73 26.017V24.4545H1084.64V26.017H1080.06V39H1078.3V26.017H1073.73Z" fill="white"/>
</svg>
